<svg xmlns="http://www.w3.org/2000/svg" viewBox="0 0 800 600"><defs><style>.cls-1{opacity:0.4;}.cls-2,.cls-3,.cls-4,.cls-5,.cls-6,.cls-7,.cls-8,.cls-9{fill:none;}.cls-2{stroke:#d7e9ff;stroke-miterlimit:10;stroke-width:14.49px;}.cls-3,.cls-4,.cls-5,.cls-6,.cls-7,.cls-8,.cls-9{stroke:#016bff;stroke-linecap:round;stroke-linejoin:round;}.cls-3,.cls-7,.cls-8,.cls-9{stroke-width:8px;}.cls-3{stroke-dasharray:0 22;opacity:0.5;}.cls-4,.cls-5,.cls-6{stroke-width:7.89px;}.cls-5{stroke-dasharray:0 23.24;}.cls-6{stroke-dasharray:0 22.13;}.cls-8{stroke-dasharray:0 20.99;}.cls-9{stroke-dasharray:0 21.96;}.cls-10{fill:#d7e9ff;}</style></defs><title>Electrical Design Illo</title><g id="Layer_2" data-name="Layer 2"><g class="cls-1"><polygon class="cls-2" points="512.63 501.03 287.36 500.36 177.7 300.31 287.36 98.97 512.63 99.64 622.3 299.68 512.63 501.03"/></g><line class="cls-3" x1="485.63" y1="298.72" x2="601.83" y2="298.72"/><line class="cls-3" x1="314.79" y1="298.72" x2="198.59" y2="298.72"/><line class="cls-4" x1="400.21" y1="459.73" x2="400.21" y2="459.73"/><line class="cls-5" x1="423.45" y1="459.73" x2="574.51" y2="459.73"/><line class="cls-4" x1="586.13" y1="459.73" x2="586.13" y2="459.73"/><line class="cls-6" x1="597.2" y1="440.56" x2="658.06" y2="335.15"/><line class="cls-4" x1="663.59" y1="325.57" x2="663.59" y2="325.57"/><circle class="cls-7" cx="679.09" cy="298.72" r="31.01"/><line class="cls-7" x1="400.21" y1="137.7" x2="400.21" y2="137.7"/><line class="cls-8" x1="379.22" y1="137.7" x2="221.78" y2="137.7"/><line class="cls-7" x1="211.28" y1="137.7" x2="211.28" y2="137.7"/><line class="cls-9" x1="200.31" y1="156.72" x2="139.93" y2="261.3"/><line class="cls-7" x1="134.44" y1="270.81" x2="134.44" y2="270.81"/><circle class="cls-7" cx="120.91" cy="298.72" r="31.01"/><polygon class="cls-10" points="444.66 273.81 444.51 323.62 400.28 347.86 355.76 323.62 355.91 273.81 400.14 249.57 444.66 273.81"/><polygon class="cls-7" points="485.63 250.86 485.35 346.58 400.34 393.18 314.79 346.58 315.07 250.86 400.07 204.25 485.63 250.86"/><circle class="cls-7" cx="384.08" cy="459.73" r="16.13"/><circle class="cls-7" cx="417.61" cy="137.7" r="16.13"/></g></svg>