<svg xmlns="http://www.w3.org/2000/svg" viewBox="0 0 800 600"><defs><style>.cls-1,.cls-6{opacity:0.5;}.cls-2,.cls-3,.cls-6{fill:none;stroke:#016bff;stroke-linecap:round;stroke-linejoin:round;stroke-width:9.79px;}.cls-3{stroke-dasharray:0 23.38;}.cls-4{fill:#d7e9ff;}.cls-5{fill:#016bff;}</style></defs><title>Prototyping Illo</title><g id="Layer_2" data-name="Layer 2"><g class="cls-1"><line class="cls-2" x1="382.61" y1="299.5" x2="382.61" y2="299.5"/><line class="cls-3" x1="405.99" y1="299.5" x2="417.68" y2="299.5"/><line class="cls-2" x1="429.37" y1="299.5" x2="429.37" y2="299.5"/></g><g class="cls-1"><line class="cls-2" x1="157.43" y1="299.5" x2="157.43" y2="299.5"/><line class="cls-3" x1="180.81" y1="299.5" x2="192.5" y2="299.5"/><line class="cls-2" x1="204.19" y1="299.5" x2="204.19" y2="299.5"/></g><polygon class="cls-4" points="673.29 251.21 673.01 343.64 590.93 388.63 508.32 343.64 508.6 251.21 590.67 206.22 673.29 251.21"/><path class="cls-5" d="M590.33,460.65a4.85,4.85,0,0,1-2.34-.6L446.46,383a4.87,4.87,0,0,1-2.55-4.31l.47-158.33a4.91,4.91,0,0,1,2.55-4.28L587.53,139a4.88,4.88,0,0,1,4.7,0L733.75,216a4.9,4.9,0,0,1,2.56,4.31l-.48,158.33a4.9,4.9,0,0,1-2.54,4.28L592.68,460A4.79,4.79,0,0,1,590.33,460.65ZM453.71,375.76l136.61,74.41,135.73-74.41.46-152.52L589.89,148.83,454.17,223.24Z"/><polyline class="cls-6" points="449.28 220.34 590.81 297.43 731.41 220.34 590.81 297.43 590.33 455.75"/><polygon class="cls-4" points="368.07 257.64 367.82 341.37 293.46 382.13 218.62 341.37 218.87 257.64 293.23 216.87 368.07 257.64"/><path class="cls-5" d="M138.11,339.16H68.59a4.9,4.9,0,0,1-4.9-4.9V264.74a4.89,4.89,0,0,1,4.9-4.89h69.52a4.89,4.89,0,0,1,4.89,4.89v69.52A4.9,4.9,0,0,1,138.11,339.16Zm-64.63-9.8h59.73V269.64H73.48Z"/></g></svg>