<svg xmlns="http://www.w3.org/2000/svg" viewBox="0 0 600 600"><defs><style>.cls-1{fill:#d7e9ff;}.cls-2{fill:none;stroke:#016bff;stroke-miterlimit:10;stroke-width:10px;}</style></defs><title>Robotics Icon</title><g id="Layer_2" data-name="Layer 2"><path class="cls-1" d="M336.42,472a131.93,131.93,0,0,1-154-54.93,81.87,81.87,0,0,1,154,54.93Z"/><path class="cls-1" d="M419.46,388.42a82,82,0,0,1-15.85-115.08A131.84,131.84,0,0,1,419.46,388.42Z"/><path class="cls-1" d="M290.16,231.23a81.84,81.84,0,0,1-106.67,44.1A132.09,132.09,0,0,1,295,215.11,81.2,81.2,0,0,1,290.16,231.23Z"/><path class="cls-2" d="M431.18,237.66a84.14,84.14,0,0,0-155.25-64.94Z"/><path class="cls-2" d="M415.89,397.94a132,132,0,0,1-50.5,60.17,132.09,132.09,0,0,1-122.07,10.61,131.3,131.3,0,0,1-60.89-51.65,133,133,0,0,1-13.62-29.15,131.35,131.35,0,0,1,2.75-89.39c.32-.79.64-1.59,1-2.39a131.8,131.8,0,0,1,122.5-81A130.81,130.81,0,0,1,321,217.86a131.93,131.93,0,0,1,98.49,170.56Q417.87,393.21,415.89,397.94Z"/><path class="cls-2" d="M299.54,349.27a107.94,107.94,0,0,0-130.73,38.65,133,133,0,0,0,13.62,29.15,131.93,131.93,0,0,0,154,54.93,132.64,132.64,0,0,0,29-13.89A107.9,107.9,0,0,0,299.54,349.27Z"/><path class="cls-2" d="M321,217.86a131.82,131.82,0,0,0-137.48,57.47,132.65,132.65,0,0,0-11,20.81c-.33.8-.65,1.6-1,2.39.48.22,1,.42,1.45.62a107.93,107.93,0,0,0,148-81.29Z"/><path class="cls-2" d="M419.46,388.42a132.14,132.14,0,0,0-32.78-135.49,108,108,0,0,0,22,159.69,130,130,0,0,0,7.24-14.68Q417.87,393.22,419.46,388.42Z"/><circle class="cls-2" cx="391.29" cy="175.37" r="12.05"/><circle class="cls-1" cx="347.55" cy="163.63" r="9.04"/></g></svg>