<svg xmlns="http://www.w3.org/2000/svg" viewBox="0 0 800 600"><defs><style>.cls-1{isolation:isolate;}.cls-2,.cls-5,.cls-6,.cls-7,.cls-8{fill:none;stroke:#016bff;}.cls-2,.cls-5,.cls-6,.cls-8{stroke-linecap:round;}.cls-2,.cls-5,.cls-6{stroke-linejoin:round;}.cls-2{stroke-width:7px;}.cls-3{opacity:0.4;mix-blend-mode:multiply;}.cls-4{fill:#d7e9ff;}.cls-5,.cls-7,.cls-8{stroke-width:8px;}.cls-6{stroke-width:6px;}.cls-7,.cls-8{stroke-miterlimit:10;}</style></defs><title>Robotics Illo</title><g class="cls-1"><g id="Layer_2" data-name="Layer 2"><polygon class="cls-2" points="284.91 176.62 263.68 149.62 229.66 152.88 216.24 183.85 237.47 210.85 271.49 207.59 284.91 176.62"/><polyline class="cls-2" points="229.66 152.88 250.89 179.89 284.91 176.62 250.89 179.89 237.47 210.85"/><g class="cls-3"><polygon class="cls-4" points="486.97 437.41 486.97 187.07 736.31 312.24 486.97 437.41"/><polygon class="cls-4" points="282.52 437.41 282.52 187.07 439.21 312.24 282.52 437.41"/><polygon class="cls-4" points="98.08 437.41 98.08 187.07 234.77 312.24 98.08 437.41"/></g><polygon class="cls-5" points="189.01 255 123.99 224.72 63.69 262.9 67.92 333.24 132.94 363.52 193.24 325.33 189.01 255"/><polyline class="cls-5" points="63.69 262.9 128.72 293.18 189.01 255 128.72 293.18 132.94 363.52"/><polygon class="cls-6" points="337.45 337.16 315.01 320.4 288.91 330.18 284.91 357.41 307.35 374.18 333.45 364.39 337.45 337.16"/><polyline class="cls-6" points="288.91 330.18 311.35 346.95 337.45 337.16 311.35 346.95 307.35 374.18"/><path class="cls-4" d="M641.68,445.41a94.08,94.08,0,0,1-109.83-39.18,58.39,58.39,0,0,1,109.83,39.18Z"/><path class="cls-4" d="M700.9,385.8a58.45,58.45,0,0,1-11.3-82.08A94.05,94.05,0,0,1,700.9,385.8Z"/><path class="cls-4" d="M608.68,273.69a58.37,58.37,0,0,1-76.07,31.46,94.2,94.2,0,0,1,79.55-42.95A57.57,57.57,0,0,1,608.68,273.69Z"/><path class="cls-7" d="M709.26,278.28A60,60,0,0,0,598.53,232Z"/><path class="cls-7" d="M698.36,392.59a94.3,94.3,0,0,1-36,42.91,94.84,94.84,0,0,1-20.66,9.91A94.07,94.07,0,0,1,524.1,321.69c.22-.57.45-1.14.69-1.7A94.07,94.07,0,0,1,700.9,385.8C700.14,388.08,699.3,390.34,698.36,392.59Z"/><path class="cls-7" d="M615.37,357.88a77,77,0,0,0-93.23,27.57,94.12,94.12,0,0,0,140.2,50.05A77,77,0,0,0,615.37,357.88Z"/><path class="cls-7" d="M630.66,264.16a93.12,93.12,0,0,0-18.5-2A94,94,0,0,0,524.79,320c-.24.56-.47,1.13-.69,1.7.34.16.68.3,1,.45a77,77,0,0,0,105.53-58Z"/><path class="cls-7" d="M700.9,385.8a94.17,94.17,0,0,0-23.38-96.63,77,77,0,0,0,15.67,113.89,92.58,92.58,0,0,0,5.17-10.47C699.3,390.34,700.14,388.08,700.9,385.8Z"/><circle class="cls-7" cx="680.81" cy="233.85" r="8.59"/><circle class="cls-4" cx="649.61" cy="225.48" r="6.45"/><line class="cls-8" x1="553.13" y1="229.55" x2="418.83" y2="229.55"/><line class="cls-8" x1="501.52" y1="267.63" x2="349.45" y2="267.63"/><line class="cls-8" x1="474.21" y1="311.7" x2="405.34" y2="311.7"/></g></g></svg>